<?xml version="1.0" encoding="utf-8"?>
<!-- Generator: Adobe Illustrator 16.0.0, SVG Export Plug-In . SVG Version: 6.00 Build 0)  -->
<!DOCTYPE svg PUBLIC "-//W3C//DTD SVG 1.1//EN" "http://www.w3.org/Graphics/SVG/1.1/DTD/svg11.dtd">
<svg version="1.1" id="Ebene_1" xmlns="http://www.w3.org/2000/svg" xmlns:xlink="http://www.w3.org/1999/xlink" x="0px" y="0px"
	 width="184.252px" height="42.52px" viewBox="0 0 184.252 42.52" enable-background="new 0 0 184.252 42.52" xml:space="preserve">
<path fill="#8FB87F" d="M13.363,17.772c0.022-0.447,0.074-0.834,0.166-1.121c0.208-0.67,0.778-1.6,1.526-2.563
	c0.643,0.542,2.009,1.388,3.644,0.564c2.274-1.152,4.192-5.092,4.192-5.092s-4.319-0.752-6.596,0.403
	c-1.545,0.776-1.746,2.222-1.716,3.07c-0.664,0.603-1.224,1.201-1.638,1.728c-0.07-1.605-0.028-3.343,0.16-5.009
	c0.958-0.005,2.479-0.306,3.277-2.015c1.219-2.605,0.274-7.487,0.274-7.487s-4.251,2.308-5.46,4.917
	c-1.068,2.272,0.521,4.004,0.952,4.415c-0.281,1.153-0.474,2.398-0.557,3.698c-0.436-0.636-0.98-1.29-1.632-1.942
	c0.303-0.813,0.506-2.106-0.533-3.276C7.755,6.185,3.51,5.354,3.51,5.354s0.376,4.308,2.056,6.184
	c1.357,1.54,3.147,0.979,3.763,0.718c1.171,1.712,1.942,3.528,2.208,5.491C5.113,18.128,0,23.476,0,29.994
	c0,6.766,5.507,12.273,12.272,12.273c6.767,0,12.274-5.508,12.274-12.273C24.546,23.596,19.621,18.326,13.363,17.772z
	 M12.272,40.565c-5.829,0-10.568-4.742-10.568-10.571c0-5.828,4.74-10.569,10.568-10.569c5.83,0,10.57,4.741,10.57,10.569
	C22.842,35.823,18.102,40.565,12.272,40.565z"/>
<path fill="#3F3D3D" d="M21.25,29.994c0,4.96-4.018,8.981-8.976,8.981s-8.978-4.021-8.978-8.981c0-4.957,4.019-8.978,8.978-8.978
	S21.25,25.037,21.25,29.994 M13.836,26.5c0-2.04-1.654-3.689-3.69-3.689c-2.041,0-3.691,1.649-3.691,3.689
	c0,2.041,1.651,3.693,3.691,3.693C12.182,30.193,13.836,28.541,13.836,26.5 M16.792,24.504c0-0.575-0.469-1.044-1.046-1.044
	c-0.578,0-1.044,0.469-1.044,1.044c0,0.58,0.467,1.045,1.044,1.045C16.323,25.549,16.792,25.084,16.792,24.504 M20.062,30.617
	c0-0.942-0.762-1.704-1.701-1.704c-0.94,0-1.702,0.762-1.702,1.704c0,0.94,0.761,1.701,1.702,1.701
	C19.3,32.318,20.062,31.557,20.062,30.617 M15.553,30.34c0-0.576-0.47-1.045-1.045-1.045c-0.581,0-1.048,0.47-1.048,1.045
	c0,0.578,0.468,1.044,1.048,1.044C15.083,31.384,15.553,30.918,15.553,30.34 M16.829,34.912c0-1.369-1.111-2.479-2.478-2.479
	c-1.372,0-2.479,1.11-2.479,2.479s1.107,2.479,2.479,2.479C15.717,37.391,16.829,36.281,16.829,34.912 M16.929,27.641
	c0-0.456-0.372-0.831-0.833-0.831c-0.461,0-0.831,0.375-0.831,0.831c0,0.461,0.37,0.835,0.831,0.835
	C16.557,28.476,16.929,28.102,16.929,27.641 M11.456,32.07c0-0.458-0.372-0.833-0.835-0.833c-0.459,0-0.83,0.375-0.83,0.833
	c0,0.459,0.37,0.835,0.83,0.835C11.084,32.905,11.456,32.529,11.456,32.07 M19.58,27.127c0-0.456-0.372-0.832-0.832-0.832
	c-0.463,0-0.831,0.376-0.831,0.832c0,0.462,0.368,0.837,0.831,0.837C19.208,27.964,19.58,27.589,19.58,27.127 M7.79,31.312
	c0-0.812-0.658-1.468-1.469-1.468c-0.813,0-1.47,0.657-1.47,1.468c0,0.814,0.657,1.47,1.47,1.47
	C7.132,32.782,7.79,32.126,7.79,31.312 M10.617,35.242c0-0.908-0.736-1.648-1.647-1.648c-0.906,0-1.643,0.74-1.643,1.648
	c0,0.906,0.737,1.645,1.643,1.645C9.881,36.886,10.617,36.148,10.617,35.242"/>
<g>
	<polygon fill="#8FB87F" points="36.275,21.071 37.38,21.071 37.38,15.903 41.783,15.903 41.783,14.901 37.38,14.901 37.38,10.515 
		42.292,10.515 42.292,9.512 36.275,9.512 	"/>
	<path fill="#8FB87F" d="M47.41,9.512l-3.842,11.559h1.054l0.969-2.975h4.674l0.986,2.975h1.122L48.515,9.512H47.41z M49.926,17.11
		h-4.012l0.731-2.209l1.275-3.944l1.275,3.944L49.926,17.11z"/>
	<path fill="#8FB87F" d="M58.612,10.345c0.816,0,1.683,0.204,2.55,0.629l0.374-0.936c-0.935-0.476-1.989-0.696-2.924-0.696
		c-2.55,0-3.927,1.666-3.927,4.641V16.6c0,2.975,1.377,4.641,3.927,4.641c0.918,0,1.904-0.221,2.924-0.697l-0.391-0.935
		c-1.02,0.476-1.717,0.629-2.516,0.629c-1.853,0-2.788-1.189-2.788-3.638v-2.617C55.842,11.535,56.776,10.345,58.612,10.345z"/>
	<polygon fill="#8FB87F" points="71.634,14.713 66.109,14.713 66.109,9.512 65.004,9.512 65.004,21.071 66.109,21.071 
		66.109,15.716 71.634,15.716 71.634,21.071 72.739,21.071 72.739,9.512 71.634,9.512 	"/>
	<polygon fill="#8FB87F" points="81.579,15.393 80.271,19.541 78.961,15.393 77.075,9.512 75.953,9.512 79.675,21.071 80.78,21.071 
		84.486,9.512 83.432,9.512 	"/>
	<polygon fill="#8FB87F" points="88.804,15.716 93.309,15.716 93.309,14.713 88.804,14.713 88.804,10.515 93.819,10.515 
		93.819,9.512 87.699,9.512 87.699,21.071 93.989,21.071 93.989,20.068 88.804,20.068 	"/>
	<path fill="#8FB87F" d="M104.427,13.286v-0.731c0-1.853-1.19-3.042-3.281-3.042h-3.451v11.559H98.8v-4.726h2.601
		c0.917,1.513,1.75,3.094,2.431,4.726h1.292c-0.748-1.7-1.615-3.365-2.618-4.93C103.747,15.716,104.427,14.679,104.427,13.286z
		 M101.146,15.342H98.8v-4.827h2.346c1.275,0,2.125,0.748,2.125,2.039v0.731C103.271,14.56,102.421,15.342,101.146,15.342z"/>
	<path fill="#8FB87F" d="M113.793,15.104c0.969-0.425,1.479-1.258,1.479-2.346v-0.306c0-1.785-1.122-2.94-3.11-2.94h-3.315v11.559
		h3.739c2.041,0,3.196-1.207,3.196-3.043v-0.306C115.783,16.414,115.086,15.461,113.793,15.104z M109.952,10.515h2.211
		c1.291,0,1.954,0.73,1.954,1.938v0.306c0,1.207-0.663,1.938-1.954,1.938h-2.211V10.515z M114.627,18.028
		c0,1.275-0.697,2.04-2.041,2.04h-2.635V15.7h2.635c1.344,0,2.041,0.781,2.041,2.022V18.028z"/>
	<path fill="#8FB87F" d="M121.733,9.512l-3.842,11.559h1.055l0.969-2.975h4.674l0.986,2.975h1.122l-3.858-11.559H121.733z
		 M124.249,17.11h-4.012l0.731-2.209l1.274-3.944l1.275,3.944L124.249,17.11z"/>
	<path fill="#8FB87F" d="M136.675,14.475l0.153,5.065c-1.684-3.638-3.417-6.697-5.627-10.028h-1.326v11.559h1.105v-4.946
		l-0.068-5.185c2.125,3.314,3.842,6.493,5.542,10.131h1.325V9.512h-1.104V14.475z"/>
	<path fill="#8FB87F" d="M145.907,9.512h-3.365v11.559h3.365c2.584,0,4.046-1.768,4.046-4.487v-2.601
		C149.953,11.28,148.491,9.512,145.907,9.512z M148.796,16.583c0,2.176-1.003,3.484-2.89,3.484h-2.261v-9.553h2.261
		c1.887,0,2.89,1.292,2.89,3.468V16.583z"/>
</g>
<g>
	<path fill="#3F3D3D" d="M40.083,29.159h-3.808v11.558h2.04v-3.908h1.768c2.431,0,3.638-1.344,3.638-3.383v-0.901
		C43.72,30.485,42.514,29.159,40.083,29.159z M41.629,33.426c0,0.9-0.544,1.428-1.547,1.428h-1.768v-3.74h1.768
		c1.003,0,1.547,0.527,1.547,1.411V33.426z"/>
	<polygon fill="#3F3D3D" points="47.903,40.717 49.943,40.717 49.943,36.282 53.818,36.282 53.818,34.327 49.943,34.327 
		49.943,31.114 54.329,31.114 54.329,29.159 47.903,29.159 	"/>
	<polygon fill="#3F3D3D" points="60.397,29.159 58.357,29.159 58.357,40.717 65.021,40.717 65.021,38.762 60.397,38.762 	"/>
	<path fill="#3F3D3D" d="M70.938,29.159l-3.859,11.558h2.023l0.714-2.26h3.96l0.714,2.26h2.125l-3.875-11.558H70.938z
		 M70.394,36.586l0.527-1.666l0.884-2.922l0.85,2.922l0.527,1.666H70.394z"/>
	<path fill="#3F3D3D" d="M86.526,33.409l0.153,3.451c-1.326-2.738-2.958-5.354-4.742-7.701h-1.87v11.558h1.955v-4.42l-0.136-3.977
		c1.751,2.566,3.281,5.541,4.726,8.396h1.87V29.159h-1.955V33.409z"/>
	<polygon fill="#3F3D3D" points="99.99,30.944 99.99,29.159 92.936,29.159 92.936,31.114 97.593,31.114 92.766,38.932 
		92.766,40.717 100.16,40.717 100.16,38.762 95.162,38.762 	"/>
	<polygon fill="#3F3D3D" points="106.621,35.838 110.598,35.838 110.598,33.885 106.621,33.885 106.621,31.114 111.108,31.114 
		111.108,29.159 104.58,29.159 104.58,40.717 111.278,40.717 111.278,38.762 106.621,38.762 	"/>
	<path fill="#3F3D3D" d="M122.022,33.409l0.152,3.451c-1.326-2.738-2.957-5.354-4.742-7.701h-1.87v11.558h1.955v-4.42l-0.136-3.977
		c1.75,2.566,3.28,5.541,4.725,8.396h1.871V29.159h-1.955V33.409z"/>
	<path fill="#3F3D3D" d="M137.1,29.159h-2.227c-0.884,1.785-2.074,3.519-3.791,5.49v-5.49h-2.039v11.558h2.039v-3.738
		c0.426-0.443,0.816-0.885,1.207-1.311l2.891,5.049h2.464l-3.841-6.391C135.026,32.848,136.114,31.114,137.1,29.159z"/>
	<path fill="#3F3D3D" d="M144.53,28.989c-2.855,0-4.334,1.785-4.334,4.726v2.43c0,2.941,1.479,4.742,4.334,4.742
		c2.839,0,4.334-1.801,4.334-4.742v-2.43C148.864,30.774,147.369,28.989,144.53,28.989z M146.774,36.145
		c0,1.854-0.697,2.822-2.244,2.822s-2.244-0.969-2.244-2.822v-2.43c0-1.854,0.697-2.805,2.244-2.805s2.244,0.951,2.244,2.805V36.145
		z"/>
	<polygon fill="#3F3D3D" points="159.608,33.885 155.292,33.885 155.292,29.159 153.25,29.159 153.25,40.717 155.292,40.717 
		155.292,35.838 159.608,35.838 159.608,40.717 161.649,40.717 161.649,29.159 159.608,29.159 	"/>
	<polygon fill="#3F3D3D" points="168.754,29.159 166.715,29.159 166.715,40.717 173.378,40.717 173.378,38.762 168.754,38.762 	"/>
	<polygon fill="#3F3D3D" points="179.244,38.762 179.244,35.838 183.221,35.838 183.221,33.885 179.244,33.885 179.244,31.114 
		183.731,31.114 183.731,29.159 177.204,29.159 177.204,40.717 183.901,40.717 183.901,38.762 	"/>
</g>
</svg>
